<?xml version="1.0" encoding="UTF-8"?>
<svg width="32px" height="32px" viewBox="0 0 32 32" version="1.1" xmlns="http://www.w3.org/2000/svg" xmlns:xlink="http://www.w3.org/1999/xlink">
    <title>cloud development_icon</title>
    <g id="cloud-development_icon" stroke="none" stroke-width="1" fill="none" fill-rule="evenodd">
        <path d="M24.3322614,13.9958047 C22.140791,13.5048546 19.9659497,14.1522488 18.5650715,15.7614865 L11.8596185,23.4634623 C10.607071,24.9014477 8.42959385,25.0819735 6.65231878,24.0088387 L6.18011111,23.6470229 C6.03992168,23.5396067 5.9126918,23.4332145 5.79401116,23.3222542 C3.92353778,21.5791533 3.53588747,18.7985635 5.01586289,17.1002372 C5.99751926,15.9722652 7.50501318,15.6649272 9.02489389,16.1000821 C9.23520646,16.1597003 9.41159176,16.2208213 9.738117,16.3418132 C10.8694704,16.7610289 11.1702337,16.7670094 11.6077977,16.2651363 C11.9473555,15.874713 11.9788994,15.5731475 11.7901269,15.0621704 C11.7231574,14.8808947 11.6636822,14.7515111 11.4684454,14.3490033 C11.3121677,14.0268154 11.2295195,13.8462349 11.1465713,13.6327378 C10.5757004,12.1647446 10.7503274,10.5149047 11.7211485,9.39628428 C12.7451425,8.21937437 14.4017637,7.88483366 15.9863139,8.44785013 C17.1454772,8.85714974 17.8979166,8.89644742 18.392976,8.48260124 C18.5251034,8.37190781 18.6179308,8.20990991 18.634076,8.07278974 C18.6955353,7.55292246 18.2176899,7.0620018 17.2951905,6.63440883 C14.7373692,5.44821781 11.8651563,5.95130606 10.1443894,7.92692877 C8.99273946,9.25160169 8.51555823,11.051503 8.78671287,12.9038964 L8.91095336,13.7526455 L8.08192578,13.7138341 C6.27044039,13.6290286 4.59161485,14.3073064 3.4386974,15.6313488 C1.20896084,18.1921167 1.60894572,22.3781627 4.37504735,24.9546772 C4.37955027,24.9588872 4.38403961,24.9630488 4.38856325,24.9672038 L4.68338539,25.2129764 C5.57297289,25.9545632 6.5963476,26.4588644 7.67198218,26.7000369 C9.8599035,27.1906291 12.0355166,26.5423197 13.4368878,24.9344009 L20.1421512,17.2304735 C21.6222173,15.529385 24.3354691,15.6369934 26.2059147,17.3800684 C28.0764222,19.1232011 28.4638403,21.9013287 26.9839062,23.6022654 C25.90255,24.8439394 24.1197667,25.1472324 22.4530486,24.45151 C21.7664346,24.1421871 21.0067802,24.1398567 20.4860626,24.4256604 C19.9492164,24.7204857 19.9298574,25.2708508 20.5325086,25.8325951 C20.684009,25.9737911 20.8719765,26.1010182 21.1004781,26.2182578 C21.1169892,26.2265946 21.1169892,26.2265946 21.1462125,26.2406319 C21.1814838,26.2575104 21.1814838,26.2575104 21.2202184,26.2770039 C22.7591455,27.0464383 24.4735142,27.2059975 25.9950479,26.7352143 C26.9946273,26.4264195 27.8726004,25.8624365 28.5610566,25.0711713 C30.7909348,22.5082991 30.3911003,18.3243089 27.625857,15.7485584 C26.672739,14.8610642 25.5386373,14.2653947 24.3322614,13.9958047 Z" id="color" fill="#000000"></path>
    </g>
</svg>